<mxfile host="app.diagrams.net" modified="2020-11-15T04:57:07.481Z" agent="5.0 (Windows NT 10.0; Win64; x64) AppleWebKit/537.36 (KHTML, like Gecko) Chrome/86.0.4240.193 Safari/537.36" etag="dINp4IMNhYCcOqmrux5Q" version="13.9.5" type="github">
  <diagram id="PqgqmUp6YGciD8KypOem" name="ページ1">
    <mxGraphModel dx="1038" dy="548" grid="1" gridSize="10" guides="1" tooltips="1" connect="1" arrows="1" fold="1" page="1" pageScale="1" pageWidth="827" pageHeight="1169" math="0" shadow="0">
      <root>
        <mxCell id="0" />
        <mxCell id="1" parent="0" />
        <mxCell id="5YYy_ZPaFbXifAkJJ3s--1" value="&lt;b&gt;Google &lt;/b&gt;Cloud Platform" style="fillColor=#F6F6F6;strokeColor=none;shadow=0;gradientColor=none;fontSize=14;align=left;spacing=10;fontColor=#717171;9E9E9E;verticalAlign=top;spacingTop=-4;fontStyle=0;spacingLeft=40;html=1;" vertex="1" parent="1">
          <mxGeometry x="40" y="40" width="760" height="550" as="geometry" />
        </mxCell>
        <mxCell id="5YYy_ZPaFbXifAkJJ3s--2" value="" style="shape=mxgraph.gcp2.google_cloud_platform;fillColor=#F6F6F6;strokeColor=none;shadow=0;gradientColor=none;" vertex="1" parent="5YYy_ZPaFbXifAkJJ3s--1">
          <mxGeometry width="23" height="20" relative="1" as="geometry">
            <mxPoint x="20" y="10" as="offset" />
          </mxGeometry>
        </mxCell>
        <mxCell id="5YYy_ZPaFbXifAkJJ3s--3" value="VPCネットワーク" style="points=[[0,0,0],[0.25,0,0],[0.5,0,0],[0.75,0,0],[1,0,0],[1,0.25,0],[1,0.5,0],[1,0.75,0],[1,1,0],[0.75,1,0],[0.5,1,0],[0.25,1,0],[0,1,0],[0,0.75,0],[0,0.5,0],[0,0.25,0]];rounded=1;absoluteArcSize=1;arcSize=2;html=1;shadow=0;dashed=1;fontSize=14;align=left;verticalAlign=top;spacing=10;spacingTop=-4;fillColor=#e1d5e7;strokeColor=none;fontStyle=1" vertex="1" parent="1">
          <mxGeometry x="60" y="80" width="720" height="490" as="geometry" />
        </mxCell>
        <mxCell id="5YYy_ZPaFbXifAkJJ3s--5" value="東京リージョン（asia-northeast1）" style="points=[[0,0,0],[0.25,0,0],[0.5,0,0],[0.75,0,0],[1,0,0],[1,0.25,0],[1,0.5,0],[1,0.75,0],[1,1,0],[0.75,1,0],[0.5,1,0],[0.25,1,0],[0,1,0],[0,0.75,0],[0,0.5,0],[0,0.25,0]];rounded=1;absoluteArcSize=1;arcSize=2;html=1;shadow=0;dashed=1;fontSize=14;fontColor=#333333;align=left;verticalAlign=top;spacing=10;spacingTop=-4;fillColor=#f5f5f5;strokeColor=none;fontStyle=1" vertex="1" parent="1">
          <mxGeometry x="80" y="110" width="680" height="440" as="geometry" />
        </mxCell>
        <mxCell id="5YYy_ZPaFbXifAkJJ3s--6" value="サブネット（10.0.0.0/16）" style="points=[[0,0,0],[0.25,0,0],[0.5,0,0],[0.75,0,0],[1,0,0],[1,0.25,0],[1,0.5,0],[1,0.75,0],[1,1,0],[0.75,1,0],[0.5,1,0],[0.25,1,0],[0,1,0],[0,0.75,0],[0,0.5,0],[0,0.25,0]];rounded=1;absoluteArcSize=1;arcSize=2;html=1;shadow=0;dashed=1;fontSize=14;align=left;verticalAlign=top;spacing=10;spacingTop=-4;fillColor=#fad9d5;strokeColor=none;fontStyle=1" vertex="1" parent="1">
          <mxGeometry x="100" y="140" width="640" height="390" as="geometry" />
        </mxCell>
        <mxCell id="5YYy_ZPaFbXifAkJJ3s--7" value="asia-northeast1-b" style="points=[[0,0,0],[0.25,0,0],[0.5,0,0],[0.75,0,0],[1,0,0],[1,0.25,0],[1,0.5,0],[1,0.75,0],[1,1,0],[0.75,1,0],[0.5,1,0],[0.25,1,0],[0,1,0],[0,0.75,0],[0,0.5,0],[0,0.25,0]];rounded=1;absoluteArcSize=1;arcSize=2;html=1;strokeColor=none;gradientColor=none;shadow=0;dashed=0;fontSize=14;fontColor=#9E9E9E;align=left;verticalAlign=top;spacing=10;spacingTop=-4;fillColor=#FFF8E1;fontStyle=1" vertex="1" parent="1">
          <mxGeometry x="120" y="180" width="190" height="220" as="geometry" />
        </mxCell>
        <mxCell id="5YYy_ZPaFbXifAkJJ3s--8" value="asia-northeast1-c" style="points=[[0,0,0],[0.25,0,0],[0.5,0,0],[0.75,0,0],[1,0,0],[1,0.25,0],[1,0.5,0],[1,0.75,0],[1,1,0],[0.75,1,0],[0.5,1,0],[0.25,1,0],[0,1,0],[0,0.75,0],[0,0.5,0],[0,0.25,0]];rounded=1;absoluteArcSize=1;arcSize=2;html=1;strokeColor=none;gradientColor=none;shadow=0;dashed=0;fontSize=14;fontColor=#9E9E9E;align=left;verticalAlign=top;spacing=10;spacingTop=-4;fillColor=#FFF8E1;fontStyle=1" vertex="1" parent="1">
          <mxGeometry x="340" y="180" width="180" height="220" as="geometry" />
        </mxCell>
        <mxCell id="5YYy_ZPaFbXifAkJJ3s--9" value="asia-northeast1-a" style="points=[[0,0,0],[0.25,0,0],[0.5,0,0],[0.75,0,0],[1,0,0],[1,0.25,0],[1,0.5,0],[1,0.75,0],[1,1,0],[0.75,1,0],[0.5,1,0],[0.25,1,0],[0,1,0],[0,0.75,0],[0,0.5,0],[0,0.25,0]];rounded=1;absoluteArcSize=1;arcSize=2;html=1;strokeColor=none;gradientColor=none;shadow=0;dashed=0;fontSize=14;fontColor=#9E9E9E;align=left;verticalAlign=top;spacing=10;spacingTop=-4;fillColor=#FFF8E1;fontStyle=1" vertex="1" parent="1">
          <mxGeometry x="540" y="180" width="180" height="220" as="geometry" />
        </mxCell>
        <mxCell id="5YYy_ZPaFbXifAkJJ3s--17" value="" style="points=[[0,0,0],[0.25,0,0],[0.5,0,0],[0.75,0,0],[1,0,0],[1,0.25,0],[1,0.5,0],[1,0.75,0],[1,1,0],[0.75,1,0],[0.5,1,0],[0.25,1,0],[0,1,0],[0,0.75,0],[0,0.5,0],[0,0.25,0]];rounded=1;absoluteArcSize=1;arcSize=2;html=1;shadow=0;dashed=0;fontSize=12;align=left;verticalAlign=top;spacing=10;spacingTop=-4;fillColor=#d5e8d4;strokeColor=none;" vertex="1" parent="1">
          <mxGeometry x="140" y="220" width="150" height="160" as="geometry" />
        </mxCell>
        <mxCell id="5YYy_ZPaFbXifAkJJ3s--10" value="" style="strokeColor=#dddddd;shadow=1;strokeWidth=1;rounded=1;absoluteArcSize=1;arcSize=2;dashed=1;" vertex="1" parent="1">
          <mxGeometry x="160" y="240" width="110" height="40" as="geometry" />
        </mxCell>
        <mxCell id="5YYy_ZPaFbXifAkJJ3s--11" value="Compute&#xa;Engine" style="dashed=0;connectable=0;html=1;fillColor=#5184F3;strokeColor=none;shape=mxgraph.gcp2.hexIcon;prIcon=compute_engine;part=1;labelPosition=right;verticalLabelPosition=middle;align=left;verticalAlign=middle;spacingLeft=5;fontColor=#999999;fontSize=12;" vertex="1" parent="5YYy_ZPaFbXifAkJJ3s--10">
          <mxGeometry y="0.5" width="44" height="39" relative="1" as="geometry">
            <mxPoint x="5" y="-19.5" as="offset" />
          </mxGeometry>
        </mxCell>
        <mxCell id="5YYy_ZPaFbXifAkJJ3s--20" value="Apache Http Server" style="text;html=1;resizable=0;autosize=1;align=center;verticalAlign=middle;points=[];fillColor=none;strokeColor=none;rounded=0;dashed=1;fontStyle=1;fontSize=12;" vertex="1" parent="1">
          <mxGeometry x="155" y="290" width="130" height="20" as="geometry" />
        </mxCell>
        <mxCell id="5YYy_ZPaFbXifAkJJ3s--41" style="edgeStyle=orthogonalEdgeStyle;rounded=0;orthogonalLoop=1;jettySize=auto;html=1;fontSize=12;entryX=0.825;entryY=0.5;entryDx=0;entryDy=0;entryPerimeter=0;" edge="1" parent="1" source="5YYy_ZPaFbXifAkJJ3s--28" target="5YYy_ZPaFbXifAkJJ3s--40">
          <mxGeometry relative="1" as="geometry">
            <Array as="points">
              <mxPoint x="428" y="459" />
            </Array>
          </mxGeometry>
        </mxCell>
        <mxCell id="5YYy_ZPaFbXifAkJJ3s--28" value="" style="points=[[0,0,0],[0.25,0,0],[0.5,0,0],[0.75,0,0],[1,0,0],[1,0.25,0],[1,0.5,0],[1,0.75,0],[1,1,0],[0.75,1,0],[0.5,1,0],[0.25,1,0],[0,1,0],[0,0.75,0],[0,0.5,0],[0,0.25,0]];rounded=1;absoluteArcSize=1;arcSize=2;html=1;shadow=0;dashed=0;fontSize=12;align=left;verticalAlign=top;spacing=10;spacingTop=-4;fillColor=#d5e8d4;strokeColor=none;" vertex="1" parent="1">
          <mxGeometry x="355" y="220" width="145" height="160" as="geometry" />
        </mxCell>
        <mxCell id="5YYy_ZPaFbXifAkJJ3s--21" value="" style="strokeColor=#dddddd;shadow=1;strokeWidth=1;rounded=1;absoluteArcSize=1;arcSize=2;dashed=1;" vertex="1" parent="1">
          <mxGeometry x="372.5" y="240" width="110" height="40" as="geometry" />
        </mxCell>
        <mxCell id="5YYy_ZPaFbXifAkJJ3s--22" value="Compute&#xa;Engine" style="dashed=0;connectable=0;html=1;fillColor=#5184F3;strokeColor=none;shape=mxgraph.gcp2.hexIcon;prIcon=compute_engine;part=1;labelPosition=right;verticalLabelPosition=middle;align=left;verticalAlign=middle;spacingLeft=5;fontColor=#999999;fontSize=12;" vertex="1" parent="5YYy_ZPaFbXifAkJJ3s--21">
          <mxGeometry y="0.5" width="44" height="39" relative="1" as="geometry">
            <mxPoint x="5" y="-19.5" as="offset" />
          </mxGeometry>
        </mxCell>
        <mxCell id="5YYy_ZPaFbXifAkJJ3s--24" value="Apache Tomcat Server" style="text;html=1;resizable=0;autosize=1;align=center;verticalAlign=middle;points=[];fillColor=none;strokeColor=none;rounded=0;dashed=1;fontStyle=1;fontSize=12;" vertex="1" parent="1">
          <mxGeometry x="360" y="290" width="140" height="20" as="geometry" />
        </mxCell>
        <mxCell id="5YYy_ZPaFbXifAkJJ3s--31" value="" style="points=[[0,0,0],[0.25,0,0],[0.5,0,0],[0.75,0,0],[1,0,0],[1,0.25,0],[1,0.5,0],[1,0.75,0],[1,1,0],[0.75,1,0],[0.5,1,0],[0.25,1,0],[0,1,0],[0,0.75,0],[0,0.5,0],[0,0.25,0]];rounded=1;absoluteArcSize=1;arcSize=2;html=1;shadow=0;dashed=0;fontSize=12;align=left;verticalAlign=top;spacing=10;spacingTop=-4;fillColor=#d5e8d4;strokeColor=none;" vertex="1" parent="1">
          <mxGeometry x="560" y="220" width="145" height="160" as="geometry" />
        </mxCell>
        <mxCell id="5YYy_ZPaFbXifAkJJ3s--14" value="" style="strokeColor=#dddddd;shadow=1;strokeWidth=1;rounded=1;absoluteArcSize=1;arcSize=2;dashed=1;" vertex="1" parent="1">
          <mxGeometry x="580" y="240" width="100" height="40" as="geometry" />
        </mxCell>
        <mxCell id="5YYy_ZPaFbXifAkJJ3s--15" value="Cloud&#xa;SQL" style="dashed=0;connectable=0;html=1;fillColor=#5184F3;strokeColor=none;shape=mxgraph.gcp2.hexIcon;prIcon=cloud_sql;part=1;labelPosition=right;verticalLabelPosition=middle;align=left;verticalAlign=middle;spacingLeft=5;fontColor=#999999;fontSize=12;" vertex="1" parent="5YYy_ZPaFbXifAkJJ3s--14">
          <mxGeometry y="0.5" width="44" height="39" relative="1" as="geometry">
            <mxPoint x="5" y="-19.5" as="offset" />
          </mxGeometry>
        </mxCell>
        <mxCell id="5YYy_ZPaFbXifAkJJ3s--32" value="postgreSQL" style="text;html=1;resizable=0;autosize=1;align=center;verticalAlign=middle;points=[];fillColor=none;strokeColor=none;rounded=0;dashed=1;fontStyle=1;fontSize=12;" vertex="1" parent="1">
          <mxGeometry x="590" y="290" width="80" height="20" as="geometry" />
        </mxCell>
        <mxCell id="5YYy_ZPaFbXifAkJJ3s--34" style="edgeStyle=orthogonalEdgeStyle;rounded=0;orthogonalLoop=1;jettySize=auto;html=1;entryX=0;entryY=0.5;entryDx=0;entryDy=0;endArrow=none;endFill=0;" edge="1" parent="1" source="5YYy_ZPaFbXifAkJJ3s--21" target="5YYy_ZPaFbXifAkJJ3s--14">
          <mxGeometry relative="1" as="geometry" />
        </mxCell>
        <mxCell id="5YYy_ZPaFbXifAkJJ3s--33" style="edgeStyle=orthogonalEdgeStyle;rounded=0;orthogonalLoop=1;jettySize=auto;html=1;entryX=0;entryY=0.5;entryDx=0;entryDy=0;endArrow=none;endFill=0;" edge="1" parent="1" source="5YYy_ZPaFbXifAkJJ3s--10" target="5YYy_ZPaFbXifAkJJ3s--21">
          <mxGeometry relative="1" as="geometry" />
        </mxCell>
        <mxCell id="5YYy_ZPaFbXifAkJJ3s--35" value="NW Tag:httpserer" style="text;html=1;resizable=0;autosize=1;align=center;verticalAlign=middle;points=[];fillColor=none;strokeColor=none;rounded=0;dashed=1;fontStyle=1;fontSize=12;" vertex="1" parent="1">
          <mxGeometry x="155" y="330" width="120" height="20" as="geometry" />
        </mxCell>
        <mxCell id="5YYy_ZPaFbXifAkJJ3s--36" value="NW Tag:apserer" style="text;html=1;resizable=0;autosize=1;align=center;verticalAlign=middle;points=[];fillColor=none;strokeColor=none;rounded=0;dashed=1;fontStyle=1;fontSize=12;" vertex="1" parent="1">
          <mxGeometry x="375" y="330" width="110" height="20" as="geometry" />
        </mxCell>
        <mxCell id="5YYy_ZPaFbXifAkJJ3s--37" value="IPaddress:public/private" style="text;html=1;resizable=0;autosize=1;align=center;verticalAlign=middle;points=[];fillColor=none;strokeColor=none;rounded=0;dashed=1;fontStyle=1;fontSize=12;" vertex="1" parent="1">
          <mxGeometry x="140" y="310" width="150" height="20" as="geometry" />
        </mxCell>
        <mxCell id="5YYy_ZPaFbXifAkJJ3s--39" value="IPaddress:private" style="text;html=1;resizable=0;autosize=1;align=center;verticalAlign=middle;points=[];fillColor=none;strokeColor=none;rounded=0;dashed=1;fontStyle=1;fontSize=12;" vertex="1" parent="1">
          <mxGeometry x="365" y="310" width="120" height="20" as="geometry" />
        </mxCell>
        <mxCell id="5YYy_ZPaFbXifAkJJ3s--40" value="Cloud NAT" style="html=1;fillColor=#5184F3;strokeColor=none;verticalAlign=top;labelPosition=center;verticalLabelPosition=bottom;align=center;spacingTop=-6;fontSize=11;fontStyle=1;fontColor=#999999;shape=mxgraph.gcp2.hexIcon;prIcon=cloud_nat;dashed=1;" vertex="1" parent="1">
          <mxGeometry x="140" y="430" width="66" height="58.5" as="geometry" />
        </mxCell>
        <mxCell id="5YYy_ZPaFbXifAkJJ3s--42" value="IPaddress:private" style="text;html=1;resizable=0;autosize=1;align=center;verticalAlign=middle;points=[];fillColor=none;strokeColor=none;rounded=0;dashed=1;fontStyle=1;fontSize=12;" vertex="1" parent="1">
          <mxGeometry x="570" y="310" width="120" height="20" as="geometry" />
        </mxCell>
      </root>
    </mxGraphModel>
  </diagram>
</mxfile>
